
When Noah has trouble lifting Jake's heavy weapon, he begins to doubt his 

abilities, until he learns that believing in yourself is all that's necessary to get 

any job done.



Format                                   : MPEG-4
Format profile                           : Base Media / Version 2
Codec ID                                 : mp42
File size                                : 247 MiB
Duration                                 : 23mn 35s
Overall bit rate mode                    : Variable
Overall bit rate                         : 1 462 Kbps
Encoded date                             : UTC 2013-02-18 04:56:23
Tagged date                              : UTC 2013-02-18 04:56:27

Video
ID                                       : 1
Format                                   : AVC
Format/Info                              : Advanced Video Codec
Format profile                           : High@L3.1
Format settings, CABAC                   : Yes
Format settings, ReFrames                : 5 frames
Codec ID                                 : avc1
Codec ID/Info                            : Advanced Video Coding
Duration                                 : 23mn 35s
Bit rate mode                            : Variable
Bit rate                                 : 1 325 Kbps
Width                                    : 1 280 pixels
Height                                   : 720 pixels
Display aspect ratio                     : 16:9
Frame rate mode                          : Variable
Frame rate                               : 23.976 fps
Minimum frame rate                       : 1.912 fps
Maximum frame rate                       : 1 000.000 fps
Color space                              : YUV
Chroma subsampling                       : 4:2:0
Bit depth                                : 8 bits
Scan type                                : Progressive
Bits/(Pixel*Frame)                       : 0.060
Stream size                              : 224 MiB (91%)
Encoded date                             : UTC 2013-02-18 04:56:23
Tagged date                              : UTC 2013-02-18 04:56:27

Audio
ID                                       : 2
Format                                   : AAC
Format/Info                              : Advanced Audio Codec
Format profile                           : LC
Codec ID                                 : 40
Duration                                 : 23mn 35s
Bit rate mode                            : Variable
Bit rate                                 : 128 Kbps
Channel(s)                               : 2 channels
Channel positions                        : Front: L R
Sampling rate                            : 48.0 KHz
Compression mode                         : Lossy
Stream size                              : 21.6 MiB (9%)
Encoded date                             : UTC 2013-02-18 04:56:23
Tagged date                              : UTC 2013-02-18 04:56:27

